<?xml version="1.0" encoding="utf-8"?>
<!-- Generator: Adobe Illustrator 24.2.1, SVG Export Plug-In . SVG Version: 6.00 Build 0)  -->
<svg version="1.1" id="logo" xmlns="http://www.w3.org/2000/svg" xmlns:xlink="http://www.w3.org/1999/xlink" x="0px" y="0px"
	 viewBox="0 0 600 207.5" style="enable-background:new 0 0 600 207.5;" xml:space="preserve">
<style type="text/css">
	.st0{fill:#112F64;}
	.st1{fill:#0D62FF;}
</style>
<g>
	<g>
		<path class="st0" d="M135,79.9c-19.6,0-35.6-16-35.6-35.6s16-35.6,35.6-35.6s35.6,16,35.6,35.6C170.5,64,154.6,79.9,135,79.9
			 M135,0.1c-24.4,0-44.3,19.9-44.3,44.3s19.9,44.3,44.3,44.3s44.3-19.9,44.3-44.3S159.4,0.1,135,0.1"/>
		<path class="st0" d="M516.8,44.9c-2.4-1.2-16.8-8.7-18.9-9.8c-7.6-3.9-10.3-7.3-10.3-13.1c0-8.1,6.6-13.3,16.9-13.3
			c6,0,11.9,2.6,15.3,4.6c0.6,0.3,1.4,0.5,2.1,0.5c2.4,0,4.4-1.9,4.4-4.3c0-1.6-0.9-3-2.2-3.8C519.8,3.3,512.5,0,504.6,0
			C489.5,0,479,9,479,22c0,11.6,7.6,17.1,15.1,20.9c2.1,1.1,16.7,8.6,18.9,9.8c5.8,3,9,7.6,9,12.8c0,7-5.9,14.4-16.9,14.4
			c-10.7,0-19-7.2-21.2-9.4l-0.7-0.7l-6.5,5.9l0.8,0.7c2.9,2.8,13.3,12.1,27.6,12.1c16,0,25.6-11.8,25.6-23.2
			C530.6,57,525.6,49.5,516.8,44.9"/>
		<path class="st0" d="M44.2,8.8c9.5,0,18.4,3.7,25.2,10.4c1.6,1.6,4.6,1.6,6.2,0c0.8-0.8,1.3-1.9,1.3-3.1c0-1.2-0.4-2.3-1.3-3.1
			l-0.5-0.5c-8.3-8-19.2-12.4-30.8-12.4C19.9,0.1,0,20,0,44.4s19.9,44.3,44.3,44.3c12.9,0,24.5-5.5,32.6-14.4l-6.2-6.2
			c-6.5,7.2-16,11.8-26.4,11.8c-19.6,0-35.6-16-35.6-35.6C8.6,24.8,24.6,8.8,44.2,8.8"/>
		<path class="st0" d="M344.4,8.8c9.5,0,18.4,3.7,25.1,10.4c1.6,1.6,4.6,1.6,6.2,0c0.8-0.8,1.3-1.9,1.3-3.1c0-1.2-0.5-2.3-1.3-3.1
			l-0.5-0.5c-8.3-8-19.2-12.4-30.8-12.4c-24.4,0-44.3,19.9-44.3,44.3s19.9,44.3,44.3,44.3c12.9,0,24.5-5.5,32.6-14.4l-6.2-6.2
			c-6.5,7.2-15.9,11.8-26.4,11.8c-19.6,0-35.6-16-35.6-35.6C308.8,24.8,324.8,8.8,344.4,8.8"/>
		<path class="st0" d="M269.4,0.1c-1.6,0-2.9,1.1-3.6,2.4c-0.7,1.4-26.1,64-26.1,64s-25.4-62.7-26.1-64c-0.7-1.4-2-2.4-3.6-2.4
			c-1.9,0-3.4,1.4-3.9,3.2S191.3,84,191.3,84c0,0.3-0.1,0.5-0.1,0.8c0,2.2,1.8,3.9,3.9,3.9c1.9,0,3.5-1.4,3.9-3.2L211.4,18
			c0,0,23.9,59,24.6,60.4c0.7,1.4,2,2.5,3.7,2.5c1.6,0,3-1.1,3.7-2.5S268,18,268,18l12.9,70.2h8c0,0-15.1-83.1-15.6-84.9
			C272.7,1.5,271.3,0.1,269.4,0.1"/>
		<path class="st0" d="M413.7,46.8l13.2-32.4l13.2,32.4H413.7z M426.8,0.1c-1.7,0-2.9,1.1-3.7,2.5c-0.7,1.4-32.8,80.6-32.8,80.6
			c-0.2,0.5-0.3,1-0.3,1.5c0,2.2,1.7,3.9,3.9,3.9c1.7,0,3.1-1,3.7-2.5l12.5-30.6h33.5l13.3,32.6h8.5c0,0-34.1-84.2-34.8-85.6
			C429.8,1.2,428.5,0.1,426.8,0.1"/>
		<path class="st0" d="M599.2,4.9c0-2.4-2-4.4-4.4-4.4h-49.2c-2.4,0-4.4,1.9-4.4,4.4c0,2.4,1.9,4.3,4.4,4.3h20.7v78.9h8V9.2h20.6
			C597.3,9.3,599.2,7.3,599.2,4.9"/>
	</g>
	<g>
		<path class="st1" d="M264.8,118.4c-4.4,0-7.1,3.1-7.1,6.9V207h14.2v-81.7C271.9,121.5,269.2,118.4,264.8,118.4"/>
		<path class="st1" d="M103.7,172v-46.7c0-3.8-2.8-6.9-7.1-6.9c-4.4,0-7.1,3.1-7.1,6.9v46.2c0,19.8,13.9,35.9,36.2,35.9
			c22.2,0,36.2-16.1,36.2-35.9v-52.7h-14.3v53.1c0,11.7-7.8,22.1-21.9,22.1C111.5,194.1,103.7,183.7,103.7,172"/>
		<path class="st1" d="M447.6,132.8c4.7,0,7.5-3,7.5-6.9s-2.9-6.9-7.5-6.9h-43.5c-4,0-6.9,2.9-6.9,6.9v74.4c0,3.9,2.9,6.8,6.9,6.8
			h50.5v-13.8h-43.2v-25.6H444c4.9,0,7.7-2.9,7.7-6.9s-2.7-6.9-7.7-6.9h-32.6v-21.1H447.6z"/>
		<path class="st1" d="M42,193.4H19.8v-26.3H42c10.2,0,15.1,5.9,15.1,13.2C57.1,187.5,52,193.4,42,193.4 M19.8,132.7h21.3
			c8,0,11.9,4.8,11.9,10.7c0,5.9-4.3,10.7-11.9,10.7H19.8V132.7z M58.5,159.3c2.4-1.5,8.9-6.6,8.9-18.1c0-13.5-9.7-22.4-24.5-22.4
			H12.5c-4.1,0-6.9,2.8-6.9,6.9v81.2h39.1c15.8,0,26.8-11.5,26.8-26.3C71.5,165,61,160.5,58.5,159.3"/>
		<path class="st1" d="M307,118.4c-4.3,0-7.1,3.1-7.1,6.8v75.4c0,3.8,3.3,6.8,7.1,6.8c3.7,0,7-3,7-6.8v-54.4
			c0,0,34.6,44.2,43.7,55.9c2.3,2.9,3.9,5.4,8,5.4s6.9-3,6.9-6.8V119h-14v61c0,0-38.5-49.4-43.9-56.3
			C312.2,120.5,310.3,118.4,307,118.4"/>
		<path class="st1" d="M178.4,194.4c1.8,2.3,10.1,13.1,28.4,13.1c18,0,30.2-10.3,30.2-24.8c0-9.5-3.7-17.1-17.8-23.9
			c-3.8-1.8-14.3-6.9-14.3-6.9c-5.6-2.7-8.1-5.9-8.1-10.3c0-4.6,3.8-9.6,13.1-9.6c5.3,0,9.4,1.7,11.5,2.7c1.1,0.5,3.6,1.7,6,1.7
			c3.1,0,6.5-2.2,6.5-6.7c0-3.8-2.7-5.8-5.1-6.9c-3.8-1.8-9.7-4.4-19.6-4.4c-15.7,0-27.3,9.9-27.3,23.7c0,12.6,8.5,18.9,18.7,23.8
			c1.9,0.9,9.5,4.6,11.6,5.6c6.5,3.1,9.9,6.1,9.9,11.5c0,5.9-5.5,10.8-13.8,10.8c-11.9,0-18.3-7.8-19.4-9.1L178.4,194.4z"/>
		<path class="st1" d="M469.2,194.4c1.8,2.3,10.2,13.1,28.5,13.1c17.9,0,30.1-10.3,30.1-24.8c0-9.5-3.7-17.1-17.8-23.9
			c-3.7-1.8-14.3-6.9-14.3-6.9c-5.6-2.7-8.1-5.9-8.1-10.3c0-4.6,3.8-9.6,13.1-9.6c5.3,0,9.3,1.7,11.5,2.7c1.1,0.5,3.6,1.7,6,1.7
			c3.1,0,6.5-2.2,6.5-6.7c0-3.8-2.7-5.8-5.1-6.9c-3.8-1.8-9.8-4.4-19.6-4.4c-15.7,0-27.3,9.9-27.3,23.7c0,12.6,8.5,18.9,18.7,23.8
			c2,0.9,9.6,4.6,11.7,5.6c6.4,3.1,9.8,6.1,9.8,11.5c0,5.9-5.5,10.8-13.8,10.8c-12,0-18.3-7.8-19.4-9.1L469.2,194.4z"/>
		<path class="st1" d="M541.3,194.4c1.8,2.3,10.1,13.1,28.4,13.1c17.9,0,30.2-10.3,30.2-24.8c0-9.5-3.8-17.1-17.8-23.9
			c-3.8-1.8-14.4-6.9-14.4-6.9c-5.5-2.7-8-5.9-8-10.3c0-4.6,3.8-9.6,13-9.6c5.3,0,9.4,1.7,11.6,2.7c1,0.5,3.5,1.7,5.9,1.7
			c3.1,0,6.5-2.2,6.5-6.7c0-3.8-2.7-5.8-5.1-6.9c-3.8-1.8-9.7-4.4-19.6-4.4c-15.7,0-27.3,9.9-27.3,23.7c0,12.6,8.4,18.9,18.7,23.8
			c1.9,0.9,9.5,4.6,11.6,5.6c6.5,3.1,9.9,6.1,9.9,11.5c0,5.9-5.5,10.8-13.8,10.8c-11.9,0-18.3-7.8-19.4-9.1L541.3,194.4z"/>
	</g>
</g>
</svg>
